# xmcd CD database file
#
# Track frame offsets:
#	150
#	14259
#	27053
#	44425
#	57932
#	72890
#	89101
#	103215
#	118452
#	133007
#	149582
#
# Disc length: 2216 seconds
#
# Revision: 0
# Processed by: cddbd v1.5.2PL0 Copyright (c) Steve Scherf et al.
# Submitted via: CDex 1.74
#
DISCID=a808a60b
DTITLE=Rupp, Chris - Shine
DYEAR=2016
DGENRE=Country
TTITLE0=Shine
TTITLE1=Smile On My Face
TTITLE2=Movin' On
TTITLE3=Drinkin' With Me (Ft. Adam Bastien)
TTITLE4=Should Have Been You (Ft. Jess Carvo)
TTITLE5=Best I Can
TTITLE6=First Flight To Phoenix
TTITLE7=Luckiest Girl
TTITLE8=Country Reigns
TTITLE9=First Dance (Ft. Taylor Davis And Tristen Rupp)
TTITLE10=Through These Eyes
EXTD=YEAR: 2016
EXTT0=
EXTT1=
EXTT2=
EXTT3=
EXTT4=
EXTT5=
EXTT6=
EXTT7=
EXTT8=
EXTT9=
EXTT10=
PLAYORDER=
